<svg width="16" height="16" viewBox="0 0 16 16" fill="none" xmlns="http://www.w3.org/2000/svg">
<g id="vaadin:user-check" clip-path="url(#clip0_518_9437)">
<path id="Vector" d="M7.49961 14.4C6.69961 13.6 6.69961 12.4 7.49961 11.6C8.29961 10.8 9.49961 10.8 10.2996 11.6L10.8996 12.2L12.7996 10.1C12.0996 9.7 11.4996 9.7 10.7996 9.7C10.0996 9.6 9.39961 9.4 9.39961 8.8C9.39961 8.2 10.1996 8.4 10.7996 7.3C10.7996 7.3 13.4996 0 7.89961 0C2.39961 0 5.09961 7.3 5.09961 7.3C5.69961 8.3 6.49961 8.1 6.49961 8.8C6.49961 9.5 5.79961 9.5 5.09961 9.6C3.99961 9.7 2.99961 9.5 1.99961 11.3C1.39961 12.4 1.09961 16 1.09961 16H9.09961L7.49961 14.4ZM12.7996 16H14.8996C14.8996 16 14.7996 15.1 14.6996 14L12.7996 16Z" fill="#A2A2A2"/>
<path id="Vector_2" d="M11 16C10.7 16 10.5 15.9 10.3 15.7L8.3 13.7C7.9 13.3 7.9 12.7 8.3 12.3C8.7 11.9 9.3 11.9 9.7 12.3L11 13.6L14.3 10C14.7 9.6 15.3 9.6 15.7 9.9C16.1 10.3 16.1 10.9 15.8 11.3L11.8 15.6C11.5 15.9 11.3 16 11 16Z" fill="#30B129"/>
</g>
<defs>
<clipPath id="clip0_518_9437">
<rect width="16" height="16" fill="white"/>
</clipPath>
</defs>
</svg>
